<mxfile host="app.diagrams.net" modified="2023-11-26T08:02:47.934Z" agent="Mozilla/5.0 (Windows NT 10.0; Win64; x64) AppleWebKit/537.36 (KHTML, like Gecko) Chrome/114.0.0.0 Safari/537.36" etag="mdjxig5CGeliAz2SQ50z" version="22.1.4" type="device" pages="2">
  <diagram name="Page-1" id="n2CmUXlTVCa2VHgbeJmE">
    <mxGraphModel dx="1000" dy="1206" grid="1" gridSize="10" guides="1" tooltips="1" connect="1" arrows="1" fold="1" page="1" pageScale="1" pageWidth="850" pageHeight="1100" background="none" math="0" shadow="0">
      <root>
        <mxCell id="0" />
        <mxCell id="1" parent="0" />
        <mxCell id="a8kr29sQwqSw2Ld3Loyp-23" style="edgeStyle=orthogonalEdgeStyle;rounded=0;orthogonalLoop=1;jettySize=auto;html=1;" parent="1" source="4" target="6" edge="1">
          <mxGeometry relative="1" as="geometry" />
        </mxCell>
        <mxCell id="a8kr29sQwqSw2Ld3Loyp-24" value="Yes" style="edgeLabel;html=1;align=center;verticalAlign=middle;resizable=0;points=[];" parent="a8kr29sQwqSw2Ld3Loyp-23" vertex="1" connectable="0">
          <mxGeometry x="-0.2706" y="3" relative="1" as="geometry">
            <mxPoint y="-7" as="offset" />
          </mxGeometry>
        </mxCell>
        <mxCell id="a8kr29sQwqSw2Ld3Loyp-26" style="edgeStyle=orthogonalEdgeStyle;rounded=0;orthogonalLoop=1;jettySize=auto;html=1;" parent="1" edge="1">
          <mxGeometry relative="1" as="geometry">
            <mxPoint x="405" y="218" as="sourcePoint" />
            <mxPoint x="405" y="270" as="targetPoint" />
          </mxGeometry>
        </mxCell>
        <mxCell id="a8kr29sQwqSw2Ld3Loyp-27" value="No" style="edgeLabel;html=1;align=center;verticalAlign=middle;resizable=0;points=[];" parent="a8kr29sQwqSw2Ld3Loyp-26" vertex="1" connectable="0">
          <mxGeometry x="-0.2692" y="-1" relative="1" as="geometry">
            <mxPoint x="1" y="1" as="offset" />
          </mxGeometry>
        </mxCell>
        <mxCell id="4" value="Is Setup = True?" style="rhombus;strokeWidth=2;whiteSpace=wrap;" parent="1" vertex="1">
          <mxGeometry x="351" y="110" width="108" height="108" as="geometry" />
        </mxCell>
        <mxCell id="a8kr29sQwqSw2Ld3Loyp-38" style="edgeStyle=orthogonalEdgeStyle;rounded=0;orthogonalLoop=1;jettySize=auto;html=1;" parent="1" source="5" target="a8kr29sQwqSw2Ld3Loyp-37" edge="1">
          <mxGeometry relative="1" as="geometry" />
        </mxCell>
        <mxCell id="5" value="Load Positions: pour(n), pour(n)_out, balance, above_balance" style="whiteSpace=wrap;strokeWidth=2;" parent="1" vertex="1">
          <mxGeometry x="339" y="430" width="136.5" height="70" as="geometry" />
        </mxCell>
        <mxCell id="6" value="Print(&#39;Balance is aleady setup&#39;)&#xa;return" style="whiteSpace=wrap;strokeWidth=2;" parent="1" vertex="1">
          <mxGeometry x="510" y="134" width="110" height="60" as="geometry" />
        </mxCell>
        <mxCell id="a8kr29sQwqSw2Ld3Loyp-19" style="edgeStyle=orthogonalEdgeStyle;rounded=0;orthogonalLoop=1;jettySize=auto;html=1;" parent="1" source="a8kr29sQwqSw2Ld3Loyp-18" target="4" edge="1">
          <mxGeometry relative="1" as="geometry" />
        </mxCell>
        <mxCell id="a8kr29sQwqSw2Ld3Loyp-18" value="Start" style="ellipse;whiteSpace=wrap;html=1;aspect=fixed;strokeWidth=2;fillColor=#f8cecc;strokeColor=#b85450;" parent="1" vertex="1">
          <mxGeometry x="380" y="20" width="50" height="50" as="geometry" />
        </mxCell>
        <mxCell id="a8kr29sQwqSw2Ld3Loyp-28" value="" style="edgeStyle=orthogonalEdgeStyle;rounded=0;orthogonalLoop=1;jettySize=auto;html=1;" parent="1" source="a8kr29sQwqSw2Ld3Loyp-20" target="a8kr29sQwqSw2Ld3Loyp-25" edge="1">
          <mxGeometry relative="1" as="geometry" />
        </mxCell>
        <mxCell id="a8kr29sQwqSw2Ld3Loyp-20" value="n" style="shape=parallelogram;perimeter=parallelogramPerimeter;whiteSpace=wrap;html=1;fixedSize=1;strokeWidth=2;" parent="1" vertex="1">
          <mxGeometry x="210" y="307" width="80" height="34" as="geometry" />
        </mxCell>
        <mxCell id="a8kr29sQwqSw2Ld3Loyp-22" value="Input" style="text;html=1;align=center;verticalAlign=middle;resizable=0;points=[];autosize=1;strokeColor=none;fillColor=none;" parent="1" vertex="1">
          <mxGeometry x="231" y="277" width="50" height="30" as="geometry" />
        </mxCell>
        <mxCell id="a8kr29sQwqSw2Ld3Loyp-30" value="" style="edgeStyle=orthogonalEdgeStyle;rounded=0;orthogonalLoop=1;jettySize=auto;html=1;" parent="1" edge="1">
          <mxGeometry relative="1" as="geometry">
            <mxPoint x="459" y="324" as="sourcePoint" />
            <mxPoint x="510" y="324" as="targetPoint" />
          </mxGeometry>
        </mxCell>
        <mxCell id="a8kr29sQwqSw2Ld3Loyp-31" value="No" style="edgeLabel;html=1;align=center;verticalAlign=middle;resizable=0;points=[];" parent="a8kr29sQwqSw2Ld3Loyp-30" vertex="1" connectable="0">
          <mxGeometry x="-0.1608" y="-1" relative="1" as="geometry">
            <mxPoint y="-11" as="offset" />
          </mxGeometry>
        </mxCell>
        <mxCell id="a8kr29sQwqSw2Ld3Loyp-32" style="edgeStyle=orthogonalEdgeStyle;rounded=0;orthogonalLoop=1;jettySize=auto;html=1;" parent="1" source="a8kr29sQwqSw2Ld3Loyp-25" target="5" edge="1">
          <mxGeometry relative="1" as="geometry" />
        </mxCell>
        <mxCell id="a8kr29sQwqSw2Ld3Loyp-35" value="Yes" style="edgeLabel;html=1;align=center;verticalAlign=middle;resizable=0;points=[];" parent="a8kr29sQwqSw2Ld3Loyp-32" vertex="1" connectable="0">
          <mxGeometry x="-0.2154" relative="1" as="geometry">
            <mxPoint as="offset" />
          </mxGeometry>
        </mxCell>
        <mxCell id="a8kr29sQwqSw2Ld3Loyp-25" value="Is n between &#xa;1 &amp; 4?" style="rhombus;strokeWidth=2;whiteSpace=wrap;" parent="1" vertex="1">
          <mxGeometry x="351" y="270" width="108" height="108" as="geometry" />
        </mxCell>
        <mxCell id="a8kr29sQwqSw2Ld3Loyp-29" value="Print(&#39;Balance is aleady setup&#39;)&#xa;return" style="whiteSpace=wrap;strokeWidth=2;" parent="1" vertex="1">
          <mxGeometry x="510" y="294" width="110" height="60" as="geometry" />
        </mxCell>
        <mxCell id="a8kr29sQwqSw2Ld3Loyp-42" value="" style="edgeStyle=orthogonalEdgeStyle;rounded=0;orthogonalLoop=1;jettySize=auto;html=1;" parent="1" source="a8kr29sQwqSw2Ld3Loyp-37" target="a8kr29sQwqSw2Ld3Loyp-40" edge="1">
          <mxGeometry relative="1" as="geometry" />
        </mxCell>
        <mxCell id="a8kr29sQwqSw2Ld3Loyp-37" value="open_gripper()&#xa;go to &#39;straight forward&#39; position" style="whiteSpace=wrap;strokeWidth=2;" parent="1" vertex="1">
          <mxGeometry x="520" y="435" width="110" height="60" as="geometry" />
        </mxCell>
        <mxCell id="a8kr29sQwqSw2Ld3Loyp-44" value="" style="edgeStyle=orthogonalEdgeStyle;rounded=0;orthogonalLoop=1;jettySize=auto;html=1;" parent="1" source="a8kr29sQwqSw2Ld3Loyp-40" target="a8kr29sQwqSw2Ld3Loyp-43" edge="1">
          <mxGeometry relative="1" as="geometry" />
        </mxCell>
        <mxCell id="a8kr29sQwqSw2Ld3Loyp-40" value="wait(1)&#xa;move_to_joints(pour_out)&#xa;move_to_joints(pour, 0.2)" style="whiteSpace=wrap;strokeWidth=2;" parent="1" vertex="1">
          <mxGeometry x="503.38" y="530" width="143.25" height="50" as="geometry" />
        </mxCell>
        <mxCell id="a8kr29sQwqSw2Ld3Loyp-46" value="" style="edgeStyle=orthogonalEdgeStyle;rounded=0;orthogonalLoop=1;jettySize=auto;html=1;" parent="1" source="a8kr29sQwqSw2Ld3Loyp-43" target="a8kr29sQwqSw2Ld3Loyp-45" edge="1">
          <mxGeometry relative="1" as="geometry" />
        </mxCell>
        <mxCell id="a8kr29sQwqSw2Ld3Loyp-43" value="wait(0.5)&#xa;close_gripper()&#xa;move_to_joints(pour_out)" style="whiteSpace=wrap;strokeWidth=2;" parent="1" vertex="1">
          <mxGeometry x="334.5" y="530" width="145.5" height="50" as="geometry" />
        </mxCell>
        <mxCell id="a8kr29sQwqSw2Ld3Loyp-48" style="edgeStyle=orthogonalEdgeStyle;rounded=0;orthogonalLoop=1;jettySize=auto;html=1;" parent="1" source="a8kr29sQwqSw2Ld3Loyp-45" target="a8kr29sQwqSw2Ld3Loyp-47" edge="1">
          <mxGeometry relative="1" as="geometry" />
        </mxCell>
        <mxCell id="a8kr29sQwqSw2Ld3Loyp-45" value="wait(0.5)&#xa;move_to_joints(above_bal)&#xa;move_to_joints(balance)" style="whiteSpace=wrap;strokeWidth=2;" parent="1" vertex="1">
          <mxGeometry x="160" y="530" width="153.25" height="50" as="geometry" />
        </mxCell>
        <mxCell id="Vi2VcIwtadFdiQf3HUPj-10" value="" style="edgeStyle=orthogonalEdgeStyle;rounded=0;orthogonalLoop=1;jettySize=auto;html=1;" edge="1" parent="1" source="a8kr29sQwqSw2Ld3Loyp-47" target="Vi2VcIwtadFdiQf3HUPj-9">
          <mxGeometry relative="1" as="geometry" />
        </mxCell>
        <mxCell id="a8kr29sQwqSw2Ld3Loyp-47" value="&#xa;wait(0.5)&#xa;open_gripper()&#xa;wait(0.5)&#xa;move_to_joints(above_bal)&#xa;" style="whiteSpace=wrap;strokeWidth=2;" parent="1" vertex="1">
          <mxGeometry x="161.63" y="610" width="151.62" height="70" as="geometry" />
        </mxCell>
        <mxCell id="Vi2VcIwtadFdiQf3HUPj-13" value="" style="edgeStyle=orthogonalEdgeStyle;rounded=0;orthogonalLoop=1;jettySize=auto;html=1;" edge="1" parent="1" source="Vi2VcIwtadFdiQf3HUPj-9" target="Vi2VcIwtadFdiQf3HUPj-11">
          <mxGeometry relative="1" as="geometry" />
        </mxCell>
        <mxCell id="Vi2VcIwtadFdiQf3HUPj-9" value="Set the balance to zero" style="whiteSpace=wrap;strokeWidth=2;" vertex="1" parent="1">
          <mxGeometry x="363.5" y="620" width="95.5" height="50" as="geometry" />
        </mxCell>
        <mxCell id="Vi2VcIwtadFdiQf3HUPj-18" style="edgeStyle=orthogonalEdgeStyle;rounded=0;orthogonalLoop=1;jettySize=auto;html=1;" edge="1" parent="1" source="Vi2VcIwtadFdiQf3HUPj-11" target="Vi2VcIwtadFdiQf3HUPj-14">
          <mxGeometry relative="1" as="geometry" />
        </mxCell>
        <mxCell id="Vi2VcIwtadFdiQf3HUPj-20" value="" style="edgeStyle=orthogonalEdgeStyle;rounded=0;orthogonalLoop=1;jettySize=auto;html=1;" edge="1" parent="1" source="Vi2VcIwtadFdiQf3HUPj-11" target="Vi2VcIwtadFdiQf3HUPj-19">
          <mxGeometry relative="1" as="geometry" />
        </mxCell>
        <mxCell id="Vi2VcIwtadFdiQf3HUPj-11" value="Setup = n" style="whiteSpace=wrap;strokeWidth=2;" vertex="1" parent="1">
          <mxGeometry x="490" y="630" width="56.62" height="30" as="geometry" />
        </mxCell>
        <mxCell id="Vi2VcIwtadFdiQf3HUPj-14" value="return&lt;br&gt;Setup" style="shape=parallelogram;perimeter=parallelogramPerimeter;whiteSpace=wrap;html=1;fixedSize=1;strokeWidth=2;" vertex="1" parent="1">
          <mxGeometry x="590" y="628" width="80" height="34" as="geometry" />
        </mxCell>
        <mxCell id="Vi2VcIwtadFdiQf3HUPj-15" value="Output" style="text;html=1;align=center;verticalAlign=middle;resizable=0;points=[];autosize=1;strokeColor=none;fillColor=none;" vertex="1" parent="1">
          <mxGeometry x="606" y="598" width="60" height="30" as="geometry" />
        </mxCell>
        <mxCell id="Vi2VcIwtadFdiQf3HUPj-19" value="End" style="ellipse;whiteSpace=wrap;html=1;aspect=fixed;strokeWidth=2;fillColor=#f8cecc;strokeColor=#b85450;" vertex="1" parent="1">
          <mxGeometry x="493.31" y="690" width="50" height="50" as="geometry" />
        </mxCell>
      </root>
    </mxGraphModel>
  </diagram>
  <diagram id="8fAOV2323zXgEywI4QaJ" name="Page-2">
    <mxGraphModel dx="1152" dy="0" grid="1" gridSize="10" guides="1" tooltips="1" connect="1" arrows="1" fold="1" page="1" pageScale="1" pageWidth="850" pageHeight="1100" math="0" shadow="0">
      <root>
        <mxCell id="0" />
        <mxCell id="1" parent="0" />
      </root>
    </mxGraphModel>
  </diagram>
</mxfile>
